<svg width="70.000000" height="70.000000" viewBox="0 0 70 70" fill="none" xmlns="http://www.w3.org/2000/svg" xmlns:xlink="http://www.w3.org/1999/xlink">
	<desc>
			Created with Pixso.
	</desc>
	<defs/>
	<rect id="Rectangle 9" rx="15.000000" width="70.000000" height="70.000000" fill="#149211" fill-opacity="0.280000"/>
	<g opacity="0.000000">
		<path id="Vector" d="M23 23L48 23L48 48L23 48L23 23Z" fill="#149211" fill-opacity="1.000000" fill-rule="evenodd"/>
	</g>
	<path id="Vector" d="M34.5728 46.9583C34.4521 46.9581 34.3323 46.937 34.2188 46.8958C33.9998 46.8156 33.814 46.6642 33.6912 46.4659C33.5684 46.2676 33.5156 46.0338 33.5415 45.802L34.3438 38.4166L28.2083 38.4166C28.019 38.4169 27.8333 38.3656 27.6709 38.2683C27.5088 38.171 27.376 38.0313 27.2871 37.8642C27.1982 37.6971 27.1565 37.509 27.1665 37.3201C27.1765 37.1311 27.2378 36.9484 27.3438 36.7916L35.5625 24.4999C35.6924 24.3076 35.8831 24.1642 36.1038 24.0925C36.3245 24.0208 36.563 24.0248 36.7812 24.1041C36.991 24.182 37.1702 24.3253 37.292 24.5129C37.4141 24.7006 37.4722 24.9224 37.4583 25.1458L36.6562 32.5833L42.7915 32.5833C42.981 32.583 43.1665 32.6343 43.3289 32.7316C43.4912 32.8289 43.6238 32.9686 43.7129 33.1357C43.8018 33.3027 43.8433 33.4908 43.8335 33.6798C43.8235 33.8688 43.7622 34.0515 43.6562 34.2083L35.4375 46.4999C35.3418 46.6413 35.2131 46.757 35.0623 46.837C34.9116 46.9169 34.7434 46.9585 34.5728 46.9583ZM30.1562 36.3333L35.5 36.3333C35.6453 36.3336 35.7891 36.3644 35.9216 36.4236C36.0544 36.4828 36.1733 36.5691 36.2708 36.677C36.3691 36.7864 36.4431 36.9153 36.488 37.0554C36.533 37.1954 36.5476 37.3434 36.5312 37.4895L36.0625 41.8124L40.8438 34.6666L35.5 34.6666C35.353 34.6675 35.2075 34.6373 35.073 34.5779C34.9385 34.5186 34.8181 34.4314 34.7197 34.3222C34.6213 34.213 34.5471 34.0842 34.5022 33.9443C34.457 33.8043 34.4421 33.6564 34.4583 33.5104L34.927 29.1874L30.1562 36.3333Z" fill="#149211" fill-opacity="1.000000" fill-rule="nonzero"/>
</svg>
