<svg width="70.000000" height="70.000000" viewBox="0 0 70 70" fill="none" xmlns="http://www.w3.org/2000/svg" xmlns:xlink="http://www.w3.org/1999/xlink">
	<desc>
			Created with Pixso.
	</desc>
	<defs/>
	<rect id="Rectangle 9" rx="15.000000" width="70.000000" height="70.000000" fill="#FFCD1D" fill-opacity="0.240000"/>
	<g opacity="0.000000">
		<path id="Vector" d="M23 23L48 23L48 48L23 48L23 23Z" fill="#FFC700" fill-opacity="1.000000" fill-rule="evenodd"/>
	</g>
	<path id="Vector" d="M36.406 45.9167C35.9031 45.9161 35.4204 45.7179 35.0623 45.3646L28.3853 38.6771C28.2139 38.5068 28.1072 38.2822 28.0833 38.0417L27.1665 28.3021C27.1523 28.1496 27.1724 27.9958 27.2244 27.8517C27.2766 27.7077 27.3601 27.577 27.4685 27.4688C27.5767 27.3603 27.7075 27.2769 27.8516 27.2247C27.9956 27.1725 28.1494 27.1527 28.302 27.1667L38.0415 28.0834C38.282 28.1074 38.5066 28.2141 38.677 28.3855L45.3645 35.0626C45.7188 35.4179 45.9177 35.8993 45.9177 36.4011C45.9177 36.903 45.7188 37.3843 45.3645 37.7396L37.7395 45.3646C37.385 45.7172 36.906 45.9156 36.406 45.9167ZM30.156 37.4688L36.406 43.7188L43.7498 36.3751L37.4998 30.1251L29.3645 29.3646L30.156 37.4688Z" fill="#FFC700" fill-opacity="1.000000" fill-rule="nonzero"/>
	<path id="Vector" d="M35.5 33.9375C35.5 34.8004 34.8005 35.5 33.9375 35.5C33.0745 35.5 32.375 34.8004 32.375 33.9375C32.375 33.0746 33.0745 32.375 33.9375 32.375C34.8005 32.375 35.5 33.0746 35.5 33.9375Z" fill="#FFC700" fill-opacity="1.000000" fill-rule="evenodd"/>
</svg>
